<?xml version="1.0" encoding="UTF-8" standalone="no"?>
<svg
   xmlns:dc="http://purl.org/dc/elements/1.1/"
   xmlns:cc="http://creativecommons.org/ns#"
   xmlns:rdf="http://www.w3.org/1999/02/22-rdf-syntax-ns#"
   xmlns:svg="http://www.w3.org/2000/svg"
   xmlns="http://www.w3.org/2000/svg"
   xmlns:sodipodi="http://sodipodi.sourceforge.net/DTD/sodipodi-0.dtd"
   xmlns:inkscape="http://www.inkscape.org/namespaces/inkscape"
   version="1.1"
   id="svg2"
   xml:space="preserve"
   width="946.87994"
   height="946.87994"
   viewBox="0 0 946.87994 946.87994"
   sodipodi:docname="main_structure.svg"
   inkscape:version="1.0.2-2 (e86c870879, 2021-01-15)"><metadata
     id="metadata8"><rdf:RDF><cc:Work
         rdf:about=""><dc:format>image/svg+xml</dc:format><dc:type
           rdf:resource="http://purl.org/dc/dcmitype/StillImage" /><dc:title /></cc:Work></rdf:RDF></metadata><defs
     id="defs6"><clipPath
       clipPathUnits="userSpaceOnUse"
       id="clipPath22"><path
         d="M 0,0 H 711 V 711 H 0 Z"
         id="path20" /></clipPath></defs><sodipodi:namedview
     pagecolor="#ffffff"
     bordercolor="#666666"
     borderopacity="1"
     objecttolerance="10"
     gridtolerance="10"
     guidetolerance="10"
     inkscape:pageopacity="0"
     inkscape:pageshadow="2"
     inkscape:window-width="1667"
     inkscape:window-height="836"
     id="namedview4"
     showgrid="false"
     inkscape:zoom="0.628785"
     inkscape:cx="369.3602"
     inkscape:cy="601.00595"
     inkscape:window-x="2050"
     inkscape:window-y="119"
     inkscape:window-maximized="0"
     inkscape:current-layer="text938"
     inkscape:document-rotation="0" /><g
     id="g10"
     inkscape:groupmode="layer"
     inkscape:label="camtrap_base"
     transform="matrix(1.3333333,0,0,1.3333333,0,1.9671999e-5)"><g
       id="g12"
       style="stroke-width:0.99975002;stroke-miterlimit:4;stroke-dasharray:none;fill:none;stroke:#ff0000;stroke-opacity:1"><g
         id="g14"
         style="stroke-width:0.99975002;stroke-miterlimit:4;stroke-dasharray:none;fill:none;stroke:#ff0000;stroke-opacity:1"><g
           id="g16"
           style="stroke-width:0.99975002;stroke-miterlimit:4;stroke-dasharray:none;fill:none;stroke:#ff0000;stroke-opacity:1"><g
             id="g18"
             clip-path="url(#clipPath22)"
             style="stroke-width:0.99975002;stroke-miterlimit:4;stroke-dasharray:none;fill:none;stroke:#ff0000;stroke-opacity:1"><g
               id="g24"
               style="stroke-width:0.99975002;stroke-miterlimit:4;stroke-dasharray:none;fill:none;stroke:#ff0000;stroke-opacity:1"><g
                 id="g26"
                 transform="scale(1,-1)"
                 style="stroke-width:0.99975002;stroke-miterlimit:4;stroke-dasharray:none;fill:none;stroke:#ff0000;stroke-opacity:1"><path
                   d="m 256.559,-150.93 c 0,-2.136 1.734,-3.871 3.871,-3.871 2.136,0 3.871,1.735 3.871,3.871 0,2.137 -1.735,3.871 -3.871,3.871 -2.137,0 -3.871,-1.734 -3.871,-3.871"
                   style="fill:none;stroke:#ff0000;stroke-width:0.99975002;stroke-linecap:round;stroke-linejoin:round;stroke-miterlimit:4;stroke-dasharray:none;stroke-opacity:1"
                   id="path28" /></g><g
                 id="g30"
                 transform="scale(1,-1)"
                 style="stroke-width:0.99975002;stroke-miterlimit:4;stroke-dasharray:none;fill:none;stroke:#ff0000;stroke-opacity:1"><path
                   d="m 233.039,-498.93 c 0,-3.925 3.184,-7.109 7.109,-7.109 3.93,0 7.114,3.184 7.114,7.109 0,3.926 -3.184,7.11 -7.114,7.11 -3.925,0 -7.109,-3.184 -7.109,-7.11"
                   style="fill:none;stroke:#ff0000;stroke-width:0.99975002;stroke-linecap:round;stroke-linejoin:round;stroke-miterlimit:4;stroke-dasharray:none;stroke-opacity:1"
                   id="path32" /></g><g
                 id="g34"
                 transform="scale(1,-1)"
                 style="stroke-width:0.99975002;stroke-miterlimit:4;stroke-dasharray:none;fill:none;stroke:#ff0000;stroke-opacity:1"><path
                   d="m 241.98,-198.031 c 0,-3.926 3.184,-7.11 7.11,-7.11 3.926,0 7.109,3.184 7.109,7.11 0,3.929 -3.183,7.109 -7.109,7.109 -3.926,0 -7.11,-3.18 -7.11,-7.109"
                   style="fill:none;stroke:#ff0000;stroke-width:0.99975002;stroke-linecap:round;stroke-linejoin:round;stroke-miterlimit:4;stroke-dasharray:none;stroke-opacity:1"
                   id="path36" /></g><g
                 id="g38"
                 transform="scale(1,-1)"
                 style="stroke-width:0.99975002;stroke-miterlimit:4;stroke-dasharray:none;fill:none;stroke:#ff0000;stroke-opacity:1"><path
                   d="m 607.738,-603.09 c 0,-2.336 1.895,-4.23 4.231,-4.23 2.336,0 4.23,1.894 4.23,4.23 0,2.336 -1.894,4.231 -4.23,4.231 -2.336,0 -4.231,-1.895 -4.231,-4.231"
                   style="fill:none;stroke:#ff0000;stroke-width:0.99975002;stroke-linecap:round;stroke-linejoin:round;stroke-miterlimit:4;stroke-dasharray:none;stroke-opacity:1"
                   id="path40" /></g><g
                 id="g42"
                 transform="scale(1,-1)"
                 style="stroke-width:0.99975002;stroke-miterlimit:4;stroke-dasharray:none;fill:none;stroke:#ff0000;stroke-opacity:1"><path
                   d="m 125.82,-603.09 c 0,-2.336 1.895,-4.23 4.231,-4.23 2.336,0 4.23,1.894 4.23,4.23 0,2.336 -1.894,4.231 -4.23,4.231 -2.336,0 -4.231,-1.895 -4.231,-4.231"
                   style="fill:none;stroke:#ff0000;stroke-width:0.99975002;stroke-linecap:round;stroke-linejoin:round;stroke-miterlimit:4;stroke-dasharray:none;stroke-opacity:1"
                   id="path44" /></g><g
                 id="g46"
                 transform="scale(1,-1)"
                 style="stroke-width:0.99975002;stroke-miterlimit:4;stroke-dasharray:none;fill:none;stroke:#ff0000;stroke-opacity:1"><path
                   d="m 553.5,-326.762 h 36.602 V -382.86 H 553.5 Z"
                   style="fill:none;stroke:#ff0000;stroke-width:0.99975002;stroke-linecap:round;stroke-linejoin:round;stroke-miterlimit:4;stroke-dasharray:none;stroke-opacity:1"
                   id="path48" /></g><g
                 id="g50"
                 transform="scale(1,-1)"
                 style="stroke-width:0.99975002;stroke-miterlimit:4;stroke-dasharray:none;fill:none;stroke:#ff0000;stroke-opacity:1"><path
                   d="m 492.18,-193.648 c 0,-3.93 3.183,-7.114 7.109,-7.114 3.926,0 7.109,3.184 7.109,7.114 0,3.925 -3.183,7.109 -7.109,7.109 -3.926,0 -7.109,-3.184 -7.109,-7.109"
                   style="fill:none;stroke:#ff0000;stroke-width:0.99975002;stroke-linecap:round;stroke-linejoin:round;stroke-miterlimit:4;stroke-dasharray:none;stroke-opacity:1"
                   id="path52" /></g><g
                 id="g54"
                 transform="scale(1,-1)"
                 style="stroke-width:0.99975002;stroke-miterlimit:4;stroke-dasharray:none;fill:none;stroke:#ff0000;stroke-opacity:1"><path
                   d="m 405.961,-551.609 c 0,-3.926 3.184,-7.11 7.109,-7.11 3.926,0 7.11,3.184 7.11,7.11 0,3.925 -3.184,7.109 -7.11,7.109 -3.925,0 -7.109,-3.184 -7.109,-7.109"
                   style="fill:none;stroke:#ff0000;stroke-width:0.99975002;stroke-linecap:round;stroke-linejoin:round;stroke-miterlimit:4;stroke-dasharray:none;stroke-opacity:1"
                   id="path56" /></g><g
                 id="g58"
                 transform="scale(1,-1)"
                 style="stroke-width:0.99975002;stroke-miterlimit:4;stroke-dasharray:none;fill:none;stroke:#ff0000;stroke-opacity:1"><path
                   d="m 256.559,-289.828 c 0,-2.141 1.734,-3.871 3.871,-3.871 2.136,0 3.871,1.73 3.871,3.871 0,2.137 -1.735,3.867 -3.871,3.867 -2.137,0 -3.871,-1.73 -3.871,-3.867"
                   style="fill:none;stroke:#ff0000;stroke-width:0.99975002;stroke-linecap:round;stroke-linejoin:round;stroke-miterlimit:4;stroke-dasharray:none;stroke-opacity:1"
                   id="path60" /></g><g
                 id="g62"
                 transform="scale(1,-1)"
                 style="stroke-width:0.99975002;stroke-miterlimit:4;stroke-dasharray:none;fill:none;stroke:#ff0000;stroke-opacity:1"><path
                   d="m 328.441,-552.328 c 0,-3.93 3.184,-7.113 7.11,-7.113 3.926,0 7.109,3.183 7.109,7.113 0,3.926 -3.183,7.109 -7.109,7.109 -3.926,0 -7.11,-3.183 -7.11,-7.109"
                   style="fill:none;stroke:#ff0000;stroke-width:0.99975002;stroke-linecap:round;stroke-linejoin:round;stroke-miterlimit:4;stroke-dasharray:none;stroke-opacity:1"
                   id="path64" /></g><g
                 id="g66"
                 transform="scale(1,-1)"
                 style="stroke-width:0.99975002;stroke-miterlimit:4;stroke-dasharray:none;fill:none;stroke:#ff0000;stroke-opacity:1"><path
                   d="m 315.301,-156.27 c 0,-3.925 3.183,-7.109 7.109,-7.109 3.926,0 7.11,3.184 7.11,7.109 0,3.926 -3.184,7.11 -7.11,7.11 -3.926,0 -7.109,-3.184 -7.109,-7.11"
                   style="fill:none;stroke:#ff0000;stroke-width:0.99975002;stroke-linecap:round;stroke-linejoin:round;stroke-miterlimit:4;stroke-dasharray:none;stroke-opacity:1"
                   id="path68" /></g><g
                 id="g70"
                 transform="scale(1,-1)"
                 style="stroke-width:0.99975002;stroke-miterlimit:4;stroke-dasharray:none;fill:none;stroke:#ff0000;stroke-opacity:1"><path
                   d="m 607.738,-121.172 c 0,-2.336 1.895,-4.226 4.231,-4.226 2.336,0 4.23,1.89 4.23,4.226 0,2.34 -1.894,4.231 -4.23,4.231 -2.336,0 -4.231,-1.891 -4.231,-4.231"
                   style="fill:none;stroke:#ff0000;stroke-width:0.99975002;stroke-linecap:round;stroke-linejoin:round;stroke-miterlimit:4;stroke-dasharray:none;stroke-opacity:1"
                   id="path72" /></g><g
                 id="g74"
                 transform="scale(1,-1)"
                 style="stroke-width:0.99975002;stroke-miterlimit:4;stroke-dasharray:none;fill:none;stroke:#ff0000;stroke-opacity:1"><path
                   d="m 184.98,-326.762 h 36.598 V -382.86 H 184.98 Z"
                   style="fill:none;stroke:#ff0000;stroke-width:0.99975002;stroke-linecap:round;stroke-linejoin:round;stroke-miterlimit:4;stroke-dasharray:none;stroke-opacity:1"
                   id="path76" /></g><g
                 id="g78"
                 transform="scale(1,-1)"
                 style="stroke-width:0.99975002;stroke-miterlimit:4;stroke-dasharray:none;fill:none;stroke:#ff0000;stroke-opacity:1"><path
                   d="m 125.82,-121.172 c 0,-2.336 1.895,-4.226 4.231,-4.226 2.336,0 4.23,1.89 4.23,4.226 0,2.34 -1.894,4.231 -4.23,4.231 -2.336,0 -4.231,-1.891 -4.231,-4.231"
                   style="fill:none;stroke:#ff0000;stroke-width:0.99975002;stroke-linecap:round;stroke-linejoin:round;stroke-miterlimit:4;stroke-dasharray:none;stroke-opacity:1"
                   id="path80" /></g><g
                 id="g82"
                 transform="scale(1,-1)"
                 style="stroke-width:0.99975002;stroke-miterlimit:4;stroke-dasharray:none;fill:none;stroke:#ff0000;stroke-opacity:1"><path
                   d="m 392.461,-148.828 c 0,-3.93 3.184,-7.113 7.109,-7.113 3.926,0 7.11,3.183 7.11,7.113 0,3.926 -3.184,7.109 -7.11,7.109 -3.925,0 -7.109,-3.183 -7.109,-7.109"
                   style="fill:none;stroke:#ff0000;stroke-width:0.99975002;stroke-linecap:round;stroke-linejoin:round;stroke-miterlimit:4;stroke-dasharray:none;stroke-opacity:1"
                   id="path84" /></g><g
                 id="g86"
                 transform="scale(1,-1)"
                 style="stroke-width:0.99975002;stroke-miterlimit:4;stroke-dasharray:none;fill:none;stroke:#ff0000;stroke-opacity:1"><path
                   d="m 482.641,-516.391 c 0,-3.925 3.183,-7.109 7.109,-7.109 3.926,0 7.109,3.184 7.109,7.109 0,3.926 -3.183,7.11 -7.109,7.11 -3.926,0 -7.109,-3.184 -7.109,-7.11"
                   style="fill:none;stroke:#ff0000;stroke-width:0.99975002;stroke-linecap:round;stroke-linejoin:round;stroke-miterlimit:4;stroke-dasharray:none;stroke-opacity:1"
                   id="path88" /></g><g
                 id="g90"
                 transform="scale(1,-1)"
                 style="stroke-width:0.99975002;stroke-miterlimit:4;stroke-dasharray:none;fill:none;stroke:#ff0000;stroke-opacity:1"><path
                   d="m 420.961,-289.828 c 0,-2.141 1.73,-3.871 3.867,-3.871 2.141,0 3.871,1.73 3.871,3.871 0,2.137 -1.73,3.867 -3.871,3.867 -2.137,0 -3.867,-1.73 -3.867,-3.867"
                   style="fill:none;stroke:#ff0000;stroke-width:0.99975002;stroke-linecap:round;stroke-linejoin:round;stroke-miterlimit:4;stroke-dasharray:none;stroke-opacity:1"
                   id="path92" /></g><g
                 id="g94"
                 transform="scale(1,-1)"
                 style="stroke-width:0.99975002;stroke-miterlimit:4;stroke-dasharray:none;fill:none;stroke:#ff0000;stroke-opacity:1"><path
                   d="m 496.738,-396.148 c 0,-2.336 1.895,-4.231 4.231,-4.231 2.336,0 4.23,1.895 4.23,4.231 0,2.335 -1.894,4.226 -4.23,4.226 -2.336,0 -4.231,-1.891 -4.231,-4.226"
                   style="fill:none;stroke:#ff0000;stroke-width:0.99975002;stroke-linecap:round;stroke-linejoin:round;stroke-miterlimit:4;stroke-dasharray:none;stroke-opacity:1"
                   id="path96" /></g><g
                 id="g98"
                 transform="scale(1,-1)"
                 style="stroke-width:0.99975002;stroke-miterlimit:4;stroke-dasharray:none;fill:none;stroke:#ff0000;stroke-opacity:1"><path
                   d="m 496.738,-313.949 c 0,-2.336 1.895,-4.231 4.231,-4.231 2.336,0 4.23,1.895 4.23,4.231 0,2.336 -1.894,4.23 -4.23,4.23 -2.336,0 -4.231,-1.894 -4.231,-4.23"
                   style="fill:none;stroke:#ff0000;stroke-width:0.99975002;stroke-linecap:round;stroke-linejoin:round;stroke-miterlimit:4;stroke-dasharray:none;stroke-opacity:1"
                   id="path100" /></g><g
                 id="g102"
                 transform="scale(1,-1)"
                 style="stroke-width:0.99975002;stroke-miterlimit:4;stroke-dasharray:none;fill:none;stroke:#ff0000;stroke-opacity:1"><path
                   d="m 23.461,-681.031 c 0,-3.129 2.539,-5.668 5.668,-5.668 3.133,0 5.672,2.539 5.672,5.668 0,3.133 -2.539,5.672 -5.672,5.672 -3.129,0 -5.668,-2.539 -5.668,-5.672"
                   style="fill:none;stroke:#ff0000;stroke-width:0.99975002;stroke-linecap:round;stroke-linejoin:round;stroke-miterlimit:4;stroke-dasharray:none;stroke-opacity:1"
                   id="path104" /></g><g
                 id="g106"
                 transform="scale(1,-1)"
                 style="stroke-width:0.99975002;stroke-miterlimit:4;stroke-dasharray:none;fill:none;stroke:#ff0000;stroke-opacity:1"><path
                   d="m 675.422,-681.031 c 0,-3.129 2.535,-5.668 5.668,-5.668 3.133,0 5.672,2.539 5.672,5.668 0,3.133 -2.539,5.672 -5.672,5.672 -3.133,0 -5.668,-2.539 -5.668,-5.672"
                   style="fill:none;stroke:#ff0000;stroke-width:0.99975002;stroke-linecap:round;stroke-linejoin:round;stroke-miterlimit:4;stroke-dasharray:none;stroke-opacity:1"
                   id="path108" /></g><g
                 id="g110"
                 transform="scale(1,-1)"
                 style="stroke-width:0.99975002;stroke-miterlimit:4;stroke-dasharray:none;fill:none;stroke:#ff0000;stroke-opacity:1"><path
                   d="M 317.102,-316.801 H 492.48"
                   style="fill:none;stroke:#ff0000;stroke-width:0.99975002;stroke-linecap:round;stroke-linejoin:round;stroke-miterlimit:4;stroke-dasharray:none;stroke-opacity:1"
                   id="path112" /></g><g
                 id="g114"
                 transform="scale(1,-1)"
                 style="stroke-width:0.99975002;stroke-miterlimit:4;stroke-dasharray:none;fill:none;stroke:#ff0000;stroke-opacity:1"><path
                   d="m 317.129,-316.801 c -3.129,0 -5.668,-2.539 -5.668,-5.668"
                   style="fill:none;stroke:#ff0000;stroke-width:0.99975002;stroke-linecap:round;stroke-linejoin:round;stroke-miterlimit:4;stroke-dasharray:none;stroke-opacity:1"
                   id="path116" /></g><g
                 id="g118"
                 transform="scale(1,-1)"
                 style="stroke-width:0.99975002;stroke-miterlimit:4;stroke-dasharray:none;fill:none;stroke:#ff0000;stroke-opacity:1"><path
                   d="m 311.398,-387.66 v 65.16"
                   style="fill:none;stroke:#ff0000;stroke-width:0.99975002;stroke-linecap:round;stroke-linejoin:round;stroke-miterlimit:4;stroke-dasharray:none;stroke-opacity:1"
                   id="path120" /></g><g
                 id="g122"
                 transform="matrix(0,-1,-1,0,0,0)"
                 style="stroke-width:0.99975002;stroke-miterlimit:4;stroke-dasharray:none;fill:none;stroke:#ff0000;stroke-opacity:1"><path
                   d="m -387.629,-311.461 c -3.133,0 -5.672,-2.539 -5.672,-5.668"
                   style="fill:none;stroke:#ff0000;stroke-width:0.99975002;stroke-linecap:round;stroke-linejoin:round;stroke-miterlimit:4;stroke-dasharray:none;stroke-opacity:1"
                   id="path124" /></g><g
                 id="g126"
                 transform="scale(1,-1)"
                 style="stroke-width:0.99975002;stroke-miterlimit:4;stroke-dasharray:none;fill:none;stroke:#ff0000;stroke-opacity:1"><path
                   d="M 492.48,-393.359 H 317.102"
                   style="fill:none;stroke:#ff0000;stroke-width:0.99975002;stroke-linecap:round;stroke-linejoin:round;stroke-miterlimit:4;stroke-dasharray:none;stroke-opacity:1"
                   id="path128" /></g><g
                 id="g130"
                 transform="scale(-1,1)"
                 style="stroke-width:0.99975002;stroke-miterlimit:4;stroke-dasharray:none;fill:none;stroke:#ff0000;stroke-opacity:1"><path
                   d="m -492.512,393.301 c -3.129,0 -5.668,-2.539 -5.668,-5.672"
                   style="fill:none;stroke:#ff0000;stroke-width:0.99975002;stroke-linecap:round;stroke-linejoin:round;stroke-miterlimit:4;stroke-dasharray:none;stroke-opacity:1"
                   id="path132" /></g><g
                 id="g134"
                 transform="scale(1,-1)"
                 style="stroke-width:0.99975002;stroke-miterlimit:4;stroke-dasharray:none;fill:none;stroke:#ff0000;stroke-opacity:1"><path
                   d="m 498.121,-322.5 v -65.16"
                   style="fill:none;stroke:#ff0000;stroke-width:0.99975002;stroke-linecap:round;stroke-linejoin:round;stroke-miterlimit:4;stroke-dasharray:none;stroke-opacity:1"
                   id="path136" /></g><g
                 id="g138"
                 transform="matrix(0,1,1,0,0,0)"
                 style="stroke-width:0.99975002;stroke-miterlimit:4;stroke-dasharray:none;fill:none;stroke:#ff0000;stroke-opacity:1"><path
                   d="m 322.469,498.18 c -3.129,0 -5.668,-2.539 -5.668,-5.668"
                   style="fill:none;stroke:#ff0000;stroke-width:0.99975002;stroke-linecap:round;stroke-linejoin:round;stroke-miterlimit:4;stroke-dasharray:none;stroke-opacity:1"
                   id="path140" /></g><g
                 id="g142"
                 transform="scale(1,-1)"
                 style="stroke-width:0.99975002;stroke-miterlimit:4;stroke-dasharray:none;fill:none;stroke:#ff0000;stroke-opacity:1"><path
                   d="m 675.422,-29.07 c 0,-3.133 2.535,-5.668 5.668,-5.668 3.133,0 5.672,2.535 5.672,5.668 0,3.132 -2.539,5.672 -5.672,5.672 -3.133,0 -5.668,-2.54 -5.668,-5.672"
                   style="fill:none;stroke:#ff0000;stroke-width:0.99975002;stroke-linecap:round;stroke-linejoin:round;stroke-miterlimit:4;stroke-dasharray:none;stroke-opacity:1"
                   id="path144" /></g><g
                 id="g146"
                 transform="scale(1,-1)"
                 style="stroke-width:0.99975002;stroke-miterlimit:4;stroke-dasharray:none;fill:none;stroke:#ff0000;stroke-opacity:1"><path
                   d="m 304.379,-396.148 c 0,-2.336 1.894,-4.231 4.23,-4.231 2.336,0 4.231,1.895 4.231,4.231 0,2.335 -1.895,4.226 -4.231,4.226 -2.336,0 -4.23,-1.891 -4.23,-4.226"
                   style="fill:none;stroke:#ff0000;stroke-width:0.99975002;stroke-linecap:round;stroke-linejoin:round;stroke-miterlimit:4;stroke-dasharray:none;stroke-opacity:1"
                   id="path148" /></g><g
                 id="g150"
                 transform="scale(1,-1)"
                 style="stroke-width:0.99975002;stroke-miterlimit:4;stroke-dasharray:none;fill:none;stroke:#ff0000;stroke-opacity:1"><path
                   d="m 304.379,-313.949 c 0,-2.336 1.894,-4.231 4.23,-4.231 2.336,0 4.231,1.895 4.231,4.231 0,2.336 -1.895,4.23 -4.231,4.23 -2.336,0 -4.23,-1.894 -4.23,-4.23"
                   style="fill:none;stroke:#ff0000;stroke-width:0.99975002;stroke-linecap:round;stroke-linejoin:round;stroke-miterlimit:4;stroke-dasharray:none;stroke-opacity:1"
                   id="path152" /></g><g
                 id="g154"
                 transform="scale(1,-1)"
                 style="stroke-width:0.99975002;stroke-miterlimit:4;stroke-dasharray:none;fill:none;stroke:#ff0000;stroke-opacity:1"><path
                   d="m 23.461,-29.07 c 0,-3.133 2.539,-5.668 5.668,-5.668 3.133,0 5.672,2.535 5.672,5.668 0,3.132 -2.539,5.672 -5.672,5.672 -3.129,0 -5.668,-2.54 -5.668,-5.672"
                   style="fill:none;stroke:#ff0000;stroke-width:0.99975002;stroke-linecap:round;stroke-linejoin:round;stroke-miterlimit:4;stroke-dasharray:none;stroke-opacity:1"
                   id="path156" /></g><g
                 id="g158"
                 transform="scale(1,-1)"
                 style="stroke-width:0.99975002;stroke-miterlimit:4;stroke-dasharray:none;fill:none;stroke:#ff0000;stroke-opacity:1"><path
                   d="M 709.441,-681.059 V -29.102"
                   style="fill:none;stroke:#ff0000;stroke-width:0.99975002;stroke-linecap:round;stroke-linejoin:round;stroke-miterlimit:4;stroke-dasharray:none;stroke-opacity:1"
                   id="path160" /></g><g
                 id="g162"
                 transform="scale(1,-1)"
                 style="stroke-width:0.99975002;stroke-miterlimit:4;stroke-dasharray:none;fill:none;stroke:#ff0000;stroke-opacity:1"><path
                   d="m 681.09,-709.379 c 15.656,0 28.351,12.691 28.351,28.348"
                   style="fill:none;stroke:#ff0000;stroke-width:0.99975002;stroke-linecap:round;stroke-linejoin:round;stroke-miterlimit:4;stroke-dasharray:none;stroke-opacity:1"
                   id="path164" /></g><g
                 id="g166"
                 transform="scale(1,-1)"
                 style="stroke-width:0.99975002;stroke-miterlimit:4;stroke-dasharray:none;fill:none;stroke:#ff0000;stroke-opacity:1"><path
                   d="M 29.102,-709.441 H 681.059"
                   style="fill:none;stroke:#ff0000;stroke-width:0.99975002;stroke-linecap:round;stroke-linejoin:round;stroke-miterlimit:4;stroke-dasharray:none;stroke-opacity:1"
                   id="path168" /></g><g
                 id="g170"
                 transform="scale(1,-1)"
                 style="stroke-width:0.99975002;stroke-miterlimit:4;stroke-dasharray:none;fill:none;stroke:#ff0000;stroke-opacity:1"><path
                   d="m 0.781,-681.031 c 0,-15.657 12.692,-28.348 28.348,-28.348"
                   style="fill:none;stroke:#ff0000;stroke-width:0.99975002;stroke-linecap:round;stroke-linejoin:round;stroke-miterlimit:4;stroke-dasharray:none;stroke-opacity:1"
                   id="path172" /></g><g
                 id="g174"
                 transform="scale(1,-1)"
                 style="stroke-width:0.99975002;stroke-miterlimit:4;stroke-dasharray:none;fill:none;stroke:#ff0000;stroke-opacity:1"><path
                   d="M 0.719,-29.102 V -681.059"
                   style="fill:none;stroke:#ff0000;stroke-width:0.99975002;stroke-linecap:round;stroke-linejoin:round;stroke-miterlimit:4;stroke-dasharray:none;stroke-opacity:1"
                   id="path176" /></g><g
                 id="g178"
                 transform="scale(1,-1)"
                 style="stroke-width:0.99975002;stroke-miterlimit:4;stroke-dasharray:none;fill:none;stroke:#ff0000;stroke-opacity:1"><path
                   d="M 29.129,-0.719 C 13.473,-0.719 0.781,-13.414 0.781,-29.07"
                   style="fill:none;stroke:#ff0000;stroke-width:0.99975002;stroke-linecap:round;stroke-linejoin:round;stroke-miterlimit:4;stroke-dasharray:none;stroke-opacity:1"
                   id="path180" /></g><g
                 id="g182"
                 transform="scale(1,-1)"
                 style="stroke-width:0.99975002;stroke-miterlimit:4;stroke-dasharray:none;fill:none;stroke:#ff0000;stroke-opacity:1"><path
                   d="M 681.059,-0.719 H 29.102"
                   style="fill:none;stroke:#ff0000;stroke-width:0.99975002;stroke-linecap:round;stroke-linejoin:round;stroke-miterlimit:4;stroke-dasharray:none;stroke-opacity:1"
                   id="path184" /></g><g
                 id="g186"
                 transform="scale(1,-1)"
                 style="stroke-width:0.99975002;stroke-miterlimit:4;stroke-dasharray:none;fill:none;stroke:#ff0000;stroke-opacity:1"><path
                   d="m 709.441,-29.07 c 0,15.656 -12.695,28.351 -28.351,28.351"
                   style="fill:none;stroke:#ff0000;stroke-width:0.99975002;stroke-linecap:round;stroke-linejoin:round;stroke-miterlimit:4;stroke-dasharray:none;stroke-opacity:1"
                   id="path188" /></g></g></g></g></g></g><g
       aria-label="ON/OFF"
       transform="rotate(90)"
       id="text921"
       style="font-style:normal;font-weight:normal;font-size:30px;line-height:1.25;font-family:sans-serif;fill:#000000;fill-opacity:1;stroke:none;stroke-width:0.75"><path
         d="m 317.85614,-160.32629 q 1.33301,1.46484 2.03613,3.58886 0.71778,2.12403 0.71778,4.81934 0,2.69531 -0.73243,4.83398 -0.71777,2.12403 -2.02148,3.54493 -1.34766,1.47949 -3.19336,2.22656 -1.83105,0.74707 -4.18945,0.74707 -2.29981,0 -4.18946,-0.76172 -1.875,-0.76172 -3.19335,-2.21191 -1.31836,-1.4502 -2.03614,-3.55957 -0.70312,-2.10938 -0.70312,-4.81934 0,-2.66602 0.70312,-4.77539 0.70313,-2.12402 2.05078,-3.63281 1.28907,-1.43555 3.19336,-2.19727 1.91895,-0.76172 4.17481,-0.76172 2.34375,0 4.2041,0.77637 1.875,0.76172 3.17871,2.18262 z m -0.26367,8.4082 q 0,-4.24805 -1.9043,-6.54785 -1.9043,-2.31446 -5.20019,-2.31446 -3.3252,0 -5.2295,2.31446 -1.88964,2.2998 -1.88964,6.54785 0,4.29199 1.93359,6.57715 1.93359,2.27051 5.18555,2.27051 3.25195,0 5.17089,-2.27051 1.9336,-2.28516 1.9336,-6.57715 z"
         style="stroke-width:0.75;stroke:none;fill:#000000;fill-opacity:1"
         id="path923" /><path
         d="m 341.85028,-141.01965 h -3.58887 l -10.34179,-19.51172 v 19.51172 h -2.70996 v -21.81153 h 4.49707 l 9.43359,17.8125 v -17.8125 h 2.70996 z"
         style="stroke-width:0.75;stroke:none;fill:#000000;fill-opacity:1"
         id="path925" /><path
         d="m 357.31903,-163.81262 -10.50293,27.24609 h -2.53418 l 10.45899,-27.24609 z"
         style="stroke-width:0.75;stroke:none;fill:#000000;fill-opacity:1"
         id="path927" /><path
         d="m 377.53387,-160.32629 q 1.33301,1.46484 2.03614,3.58886 0.71777,2.12403 0.71777,4.81934 0,2.69531 -0.73242,4.83398 -0.71777,2.12403 -2.02149,3.54493 -1.34765,1.47949 -3.19335,2.22656 -1.83106,0.74707 -4.18946,0.74707 -2.2998,0 -4.18945,-0.76172 -1.875,-0.76172 -3.19336,-2.21191 -1.31836,-1.4502 -2.03613,-3.55957 -0.70313,-2.10938 -0.70313,-4.81934 0,-2.66602 0.70313,-4.77539 0.70312,-2.12402 2.05078,-3.63281 1.28906,-1.43555 3.19336,-2.19727 1.91894,-0.76172 4.1748,-0.76172 2.34375,0 4.2041,0.77637 1.875,0.76172 3.17871,2.18262 z m -0.26367,8.4082 q 0,-4.24805 -1.90429,-6.54785 -1.9043,-2.31446 -5.2002,-2.31446 -3.32519,0 -5.22949,2.31446 -1.88965,2.2998 -1.88965,6.54785 0,4.29199 1.93359,6.57715 1.9336,2.27051 5.18555,2.27051 3.25195,0 5.1709,-2.27051 1.93359,-2.28516 1.93359,-6.57715 z"
         style="stroke-width:0.75;stroke:none;fill:#000000;fill-opacity:1"
         id="path929" /><path
         d="m 398.81805,-160.25305 h -11.03027 v 6.15234 h 9.47754 v 2.57813 h -9.47754 v 10.50293 h -2.90039 v -21.81153 h 13.93066 z"
         style="stroke-width:0.75;stroke:none;fill:#000000;fill-opacity:1"
         id="path931" /><path
         d="m 416.05927,-160.25305 h -11.03028 v 6.15234 h 9.47754 v 2.57813 h -9.47754 v 10.50293 h -2.90039 v -21.81153 h 13.93067 z"
         style="stroke-width:0.75;stroke:none;fill:#000000;fill-opacity:1"
         id="path933" /><g
         aria-label="AP/WIFI"
         id="text938"
         style="font-style:normal;font-weight:normal;font-size:30px;line-height:1.25;font-family:sans-serif;fill:#000000;fill-opacity:1;stroke:none;stroke-width:0.5625"
         inkscape:transform-center-x="574.1231"
         inkscape:transform-center-y="-146.31392"><path
           d="m 312.18415,-610.42647 h -3.09083 l -2.13867,-6.0791 h -9.43359 l -2.13867,6.0791 h -2.94434 l 7.93945,-21.81152 h 3.86719 z m -6.12305,-8.56934 -3.82324,-10.708 -3.83789,10.708 z"
           style="stroke-width:0.5625;fill:#000000;fill-opacity:1;stroke:none"
           id="path940" /><path
           d="m 329.76227,-625.6462 q 0,1.4502 -0.5127,2.69532 -0.49804,1.23047 -1.40625,2.13867 -1.12792,1.12793 -2.66601,1.69922 -1.53809,0.55664 -3.88184,0.55664 h -2.90039 v 8.12988 h -2.90039 v -21.81152 h 5.91797 q 1.96289,0 3.3252,0.33691 1.3623,0.32227 2.41699,1.02539 1.24512,0.83496 1.91894,2.08008 0.68848,1.24512 0.68848,3.14941 z m -3.01758,0.0733 q 0,-1.12793 -0.39551,-1.96289 -0.3955,-0.83497 -1.20117,-1.36231 -0.70312,-0.4541 -1.61133,-0.64453 -0.89355,-0.20508 -2.2705,-0.20508 h -2.8711 v 8.71582 h 2.44629 q 1.75781,0 2.85645,-0.30762 1.09863,-0.32226 1.78711,-1.01074 0.68847,-0.70312 0.96679,-1.47949 0.29297,-0.77637 0.29297,-1.74316 z"
           style="stroke-width:0.5625;fill:#000000;fill-opacity:1;stroke:none"
           id="path942" /><path
           d="m 343.25348,-633.21944 -10.50293,27.24609 h -2.53418 l 10.45899,-27.24609 z"
           style="stroke-width:0.5625;fill:#000000;fill-opacity:1;stroke:none"
           id="path944" /><path
           d="m 372.5943,-632.23799 -5.66894,21.81152 h -3.26661 l -4.58496,-18.10547 -4.48242,18.10547 h -3.19336 l -5.77148,-21.81152 h 2.97363 l 4.58496,18.13476 4.51172,-18.13476 h 2.94434 l 4.55566,18.31054 4.55566,-18.31054 z"
           style="stroke-width:0.5625;fill:#000000;fill-opacity:1;stroke:none"
           id="path946" /><path
           d="m 384.56207,-610.42647 h -8.61328 v -2.22656 h 2.85645 v -17.3584 h -2.85645 v -2.22656 h 8.61328 v 2.22656 h -2.85644 v 17.3584 h 2.85644 z"
           style="stroke-width:0.5625;fill:#000000;fill-opacity:1;stroke:none"
           id="path948" /><path
           d="m 403.42926,-629.65987 h -11.03027 v 6.15235 h 9.47754 v 2.57812 h -9.47754 v 10.50293 h -2.90039 v -21.81152 h 13.93066 z"
           style="stroke-width:0.5625;fill:#000000;fill-opacity:1;stroke:none"
           id="path950" /><path
           d="m 414.43024,-610.42647 h -8.61328 v -2.22656 h 2.85644 v -17.3584 h -2.85644 v -2.22656 h 8.61328 v 2.22656 h -2.85645 v 17.3584 h 2.85645 z"
           style="stroke-width:0.5625;fill:#000000;fill-opacity:1;stroke:none"
           id="path952" /><g
           aria-label="BioSoilScop v1"
           transform="rotate(-90)"
           id="text936"
           style="font-style:normal;font-weight:normal;font-size:30px;line-height:1.25;font-family:sans-serif;fill:#000000;fill-opacity:1;stroke:none;stroke-width:0.421875"><path
             d="m 247.2002,679.13757 q 0,1.62598 -0.61524,2.8711 -0.61523,1.24511 -1.65527,2.05078 -1.23047,0.9668 -2.70996,1.37695 -1.46485,0.41016 -3.73536,0.41016 H 230.75 v -21.81153 h 6.45996 q 2.3877,0 3.57422,0.17579 1.18652,0.17578 2.27051,0.73242 1.20117,0.62988 1.74316,1.62597 0.54199,0.98145 0.54199,2.3584 0,1.55274 -0.79101,2.65137 -0.79102,1.08398 -2.10938,1.74316 v 0.11719 q 2.21192,0.4541 3.48633,1.94824 1.27442,1.4795 1.27442,3.75 z m -4.87793,-9.8291 q 0,-0.79101 -0.26368,-1.33301 -0.26367,-0.54199 -0.84961,-0.8789 -0.68847,-0.39551 -1.66992,-0.4834 -0.98144,-0.10254 -2.43164,-0.10254 h -3.45703 v 6.29883 h 3.75 q 1.36231,0 2.16797,-0.13184 0.80566,-0.14648 1.49414,-0.58594 0.68848,-0.43945 0.9668,-1.12792 0.29297,-0.70313 0.29297,-1.65528 z m 1.86035,9.94629 q 0,-1.31836 -0.39551,-2.09473 -0.39551,-0.77636 -1.43555,-1.31836 -0.70312,-0.36621 -1.71386,-0.46875 -0.9961,-0.11718 -2.43165,-0.11718 h -4.55566 v 8.11523 h 3.83789 q 1.9043,0 3.12012,-0.19043 1.21582,-0.20508 1.99219,-0.73242 0.82031,-0.57129 1.20117,-1.30371 0.38086,-0.73242 0.38086,-1.88965 z"
             style="stroke-width:0.421875;fill:#000000;fill-opacity:1"
             id="path938" /><path
             d="m 254.05566,666.745 h -3.10546 v -2.85645 h 3.10546 z m -0.17578,19.10156 h -2.7539 v -16.36231 h 2.7539 z"
             style="stroke-width:0.421875;fill:#000000;fill-opacity:1"
             id="path941" /><path
             d="m 273.27441,677.67273 q 0,3.99902 -2.05078,6.31348 -2.05078,2.31445 -5.49316,2.31445 -3.47168,0 -5.52246,-2.31445 -2.03614,-2.31446 -2.03614,-6.31348 0,-3.99902 2.03614,-6.31348 2.05078,-2.3291 5.52246,-2.3291 3.44238,0 5.49316,2.3291 2.05078,2.31446 2.05078,6.31348 z m -2.84179,0 q 0,-3.17871 -1.24512,-4.7168 -1.24512,-1.55273 -3.45703,-1.55273 -2.24121,0 -3.48633,1.55273 -1.23047,1.53809 -1.23047,4.7168 0,3.07617 1.24512,4.67285 1.24512,1.58203 3.47168,1.58203 2.19726,0 3.44238,-1.56738 1.25977,-1.58203 1.25977,-4.6875 z"
             style="stroke-width:0.421875;fill:#000000;fill-opacity:1"
             id="path943" /><path
             d="m 293.60645,679.62097 q 0,1.27442 -0.60059,2.51953 -0.58594,1.24512 -1.65527,2.10938 -1.17188,0.9375 -2.73926,1.46484 -1.55274,0.52735 -3.75,0.52735 -2.3584,0 -4.24805,-0.43946 -1.875,-0.43945 -3.82324,-1.30371 v -3.63281 h 0.20508 q 1.65527,1.37695 3.82324,2.12402 2.16797,0.74707 4.07226,0.74707 2.69532,0 4.18946,-1.01074 1.50879,-1.01074 1.50879,-2.69531 0,-1.4502 -0.71778,-2.13867 -0.70312,-0.68848 -2.15332,-1.06934 -1.09863,-0.29297 -2.38769,-0.4834 -1.27442,-0.19043 -2.70996,-0.4834 -2.90039,-0.61523 -4.30664,-2.09472 -1.39161,-1.49414 -1.39161,-3.88184 0,-2.73926 2.31446,-4.48242 2.31445,-1.75781 5.87402,-1.75781 2.29981,0 4.21875,0.43945 1.91895,0.43945 3.39844,1.08398 v 3.42774 h -0.20508 q -1.24512,-1.05469 -3.28125,-1.74317 -2.02148,-0.70312 -4.14551,-0.70312 -2.3291,0 -3.75,0.9668 -1.40625,0.96679 -1.40625,2.49023 0,1.36231 0.70313,2.13867 0.70312,0.77637 2.47558,1.18653 0.9375,0.20507 2.66602,0.49804 1.72852,0.29297 2.92969,0.60059 2.43164,0.64453 3.66211,1.94824 1.23047,1.30371 1.23047,3.64746 z"
             style="stroke-width:0.421875;fill:#000000;fill-opacity:1"
             id="path945" /><path
             d="m 311.99023,677.67273 q 0,3.99902 -2.05078,6.31348 -2.05078,2.31445 -5.49316,2.31445 -3.47168,0 -5.52246,-2.31445 -2.03613,-2.31446 -2.03613,-6.31348 0,-3.99902 2.03613,-6.31348 2.05078,-2.3291 5.52246,-2.3291 3.44238,0 5.49316,2.3291 2.05078,2.31446 2.05078,6.31348 z m -2.84179,0 q 0,-3.17871 -1.24512,-4.7168 -1.24512,-1.55273 -3.45703,-1.55273 -2.24121,0 -3.48633,1.55273 -1.23047,1.53809 -1.23047,4.7168 0,3.07617 1.24512,4.67285 1.24512,1.58203 3.47168,1.58203 2.19726,0 3.44238,-1.56738 1.25977,-1.58203 1.25977,-4.6875 z"
             style="stroke-width:0.421875;fill:#000000;fill-opacity:1"
             id="path947" /><path
             d="m 319.21191,666.745 h -3.10546 v -2.85645 h 3.10546 z m -0.17578,19.10156 h -2.7539 v -16.36231 h 2.7539 z"
             style="stroke-width:0.421875;fill:#000000;fill-opacity:1"
             id="path949" /><path
             d="m 327.26855,685.84656 h -2.7539 v -22.79297 h 2.7539 z"
             style="stroke-width:0.421875;fill:#000000;fill-opacity:1"
             id="path951" /><path
             d="m 348.78711,679.62097 q 0,1.27442 -0.60059,2.51953 -0.58593,1.24512 -1.65527,2.10938 -1.17188,0.9375 -2.73926,1.46484 -1.55273,0.52735 -3.75,0.52735 -2.3584,0 -4.24804,-0.43946 -1.875,-0.43945 -3.82325,-1.30371 v -3.63281 h 0.20508 q 1.65527,1.37695 3.82324,2.12402 2.16797,0.74707 4.07227,0.74707 2.69531,0 4.18945,-1.01074 1.50879,-1.01074 1.50879,-2.69531 0,-1.4502 -0.71777,-2.13867 -0.70313,-0.68848 -2.15332,-1.06934 -1.09864,-0.29297 -2.3877,-0.4834 -1.27441,-0.19043 -2.70996,-0.4834 -2.90039,-0.61523 -4.30664,-2.09472 -1.3916,-1.49414 -1.3916,-3.88184 0,-2.73926 2.31445,-4.48242 2.31446,-1.75781 5.87403,-1.75781 2.2998,0 4.21875,0.43945 1.91894,0.43945 3.39843,1.08398 v 3.42774 h -0.20508 q -1.24511,-1.05469 -3.28125,-1.74317 -2.02148,-0.70312 -4.1455,-0.70312 -2.3291,0 -3.75,0.9668 -1.40625,0.96679 -1.40625,2.49023 0,1.36231 0.70312,2.13867 0.70313,0.77637 2.47559,1.18653 0.9375,0.20507 2.66601,0.49804 1.72852,0.29297 2.92969,0.60059 2.43164,0.64453 3.66211,1.94824 1.23047,1.30371 1.23047,3.64746 z"
             style="stroke-width:0.421875;fill:#000000;fill-opacity:1"
             id="path953" /><path
             d="m 365.3252,684.82117 q -1.37696,0.65918 -2.62208,1.02539 -1.23046,0.36621 -2.62207,0.36621 -1.77246,0 -3.25195,-0.5127 -1.47949,-0.52734 -2.53418,-1.58203 -1.06933,-1.05469 -1.65527,-2.66601 -0.58594,-1.61133 -0.58594,-3.76465 0,-4.01367 2.19727,-6.29883 2.21191,-2.28516 5.83007,-2.28516 1.40625,0 2.75391,0.39551 1.36231,0.39551 2.49024,0.9668 v 3.06152 h -0.14649 q -1.25976,-0.98144 -2.60742,-1.50879 -1.33301,-0.52734 -2.60742,-0.52734 -2.34375,0 -3.70606,1.58203 -1.34765,1.56738 -1.34765,4.61426 0,2.95898 1.31836,4.55566 1.333,1.58203 3.73535,1.58203 0.83496,0 1.69922,-0.21972 0.86425,-0.21973 1.55273,-0.57129 0.60059,-0.30762 1.12793,-0.64453 0.52734,-0.35157 0.83496,-0.60059 h 0.14649 z"
             style="stroke-width:0.421875;fill:#000000;fill-opacity:1"
             id="path955" /><path
             d="m 382.80078,677.67273 q 0,3.99902 -2.05078,6.31348 -2.05078,2.31445 -5.49316,2.31445 -3.47168,0 -5.52247,-2.31445 -2.03613,-2.31446 -2.03613,-6.31348 0,-3.99902 2.03613,-6.31348 2.05079,-2.3291 5.52247,-2.3291 3.44238,0 5.49316,2.3291 2.05078,2.31446 2.05078,6.31348 z m -2.8418,0 q 0,-3.17871 -1.24511,-4.7168 -1.24512,-1.55273 -3.45703,-1.55273 -2.24122,0 -3.48633,1.55273 -1.23047,1.53809 -1.23047,4.7168 0,3.07617 1.24512,4.67285 1.24511,1.58203 3.47168,1.58203 2.19726,0 3.44238,-1.56738 1.25976,-1.58203 1.25976,-4.6875 z"
             style="stroke-width:0.421875;fill:#000000;fill-opacity:1"
             id="path957" /><path
             d="m 401.46289,677.46765 q 0,1.99219 -0.57129,3.64746 -0.57129,1.64063 -1.61133,2.78321 -0.96679,1.08398 -2.28515,1.68457 -1.30371,0.58593 -2.76856,0.58593 -1.27441,0 -2.31445,-0.27832 -1.02539,-0.27832 -2.09473,-0.86425 v 6.85546 h -2.7539 v -22.39746 h 2.7539 v 1.71387 q 1.09864,-0.92285 2.46094,-1.53809 1.37695,-0.62988 2.92969,-0.62988 2.95898,0 4.59961,2.24121 1.65527,2.22656 1.65527,6.19629 z m -2.8418,0.0732 q 0,-2.95898 -1.01074,-4.42382 -1.01074,-1.46485 -3.10547,-1.46485 -1.18652,0 -2.38769,0.5127 -1.20117,0.51269 -2.29981,1.34765 v 9.27246 q 1.17188,0.52735 2.00684,0.71778 0.84961,0.19043 1.91894,0.19043 2.29981,0 3.58887,-1.55274 1.28906,-1.55273 1.28906,-4.59961 z"
             style="stroke-width:0.421875;fill:#000000;fill-opacity:1"
             id="path959" /><path
             d="m 430.45215,669.48425 -6.6211,16.36231 h -2.76855 l -6.57715,-16.36231 h 2.98828 l 5.06836,13.02246 5.02442,-13.02246 z"
             style="stroke-width:0.421875;fill:#000000;fill-opacity:1"
             id="path961" /><path
             d="M 447.22461,685.84656 H 435.41797 V 683.62 h 4.54101 v -14.61915 h -4.54101 v -1.99218 q 0.92285,0 1.97754,-0.14649 1.05469,-0.16113 1.59668,-0.4541 0.67383,-0.36621 1.05468,-0.92285 0.39551,-0.57129 0.45411,-1.52344 h 2.2705 V 683.62 h 4.45313 z"
             style="stroke-width:0.421875;fill:#000000;fill-opacity:1"
             id="path963" /></g></g></g></g></svg>
