<?xml version="1.0" encoding="UTF-8" standalone="no"?>
<svg
   xmlns:dc="http://purl.org/dc/elements/1.1/"
   xmlns:cc="http://creativecommons.org/ns#"
   xmlns:rdf="http://www.w3.org/1999/02/22-rdf-syntax-ns#"
   xmlns:svg="http://www.w3.org/2000/svg"
   xmlns="http://www.w3.org/2000/svg"
   xmlns:sodipodi="http://sodipodi.sourceforge.net/DTD/sodipodi-0.dtd"
   xmlns:inkscape="http://www.inkscape.org/namespaces/inkscape"
   version="1.1"
   id="svg2"
   xml:space="preserve"
   width="946.87994"
   height="946.87994"
   viewBox="0 0 946.87994 946.87994"
   sodipodi:docname="camtrap_base.svg"
   inkscape:version="1.0.2-2 (e86c870879, 2021-01-15)"><metadata
     id="metadata8"><rdf:RDF><cc:Work
         rdf:about=""><dc:format>image/svg+xml</dc:format><dc:type
           rdf:resource="http://purl.org/dc/dcmitype/StillImage" /><dc:title></dc:title></cc:Work></rdf:RDF></metadata><defs
     id="defs6"><clipPath
       clipPathUnits="userSpaceOnUse"
       id="clipPath22"><path
         d="M 0,0 H 711 V 711 H 0 Z"
         id="path20" /></clipPath></defs><sodipodi:namedview
     pagecolor="#ffffff"
     bordercolor="#666666"
     borderopacity="1"
     objecttolerance="10"
     gridtolerance="10"
     guidetolerance="10"
     inkscape:pageopacity="0"
     inkscape:pageshadow="2"
     inkscape:window-width="1667"
     inkscape:window-height="836"
     id="namedview4"
     showgrid="false"
     inkscape:zoom="0.44461814"
     inkscape:cx="326.7206"
     inkscape:cy="348.03005"
     inkscape:window-x="2050"
     inkscape:window-y="119"
     inkscape:window-maximized="0"
     inkscape:current-layer="g10" /><g
     id="g10"
     inkscape:groupmode="layer"
     inkscape:label="camtrap_base"
     transform="matrix(1.3333333,0,0,1.3333333,0,1.9671999e-5)"><g
       id="g12"
       style="stroke-width:0.99975002;stroke-miterlimit:4;stroke-dasharray:none;fill:none;stroke:#ff0000;stroke-opacity:1"><g
         id="g14"
         style="stroke-width:0.99975002;stroke-miterlimit:4;stroke-dasharray:none;fill:none;stroke:#ff0000;stroke-opacity:1"><g
           id="g16"
           style="stroke-width:0.99975002;stroke-miterlimit:4;stroke-dasharray:none;fill:none;stroke:#ff0000;stroke-opacity:1"><g
             id="g18"
             clip-path="url(#clipPath22)"
             style="stroke-width:0.99975002;stroke-miterlimit:4;stroke-dasharray:none;fill:none;stroke:#ff0000;stroke-opacity:1"><g
               id="g24"
               style="stroke-width:0.99975002;stroke-miterlimit:4;stroke-dasharray:none;fill:none;stroke:#ff0000;stroke-opacity:1"><g
                 id="g26"
                 transform="scale(1,-1)"
                 style="stroke-width:0.99975002;stroke-miterlimit:4;stroke-dasharray:none;fill:none;stroke:#ff0000;stroke-opacity:1"><path
                   d="m 256.559,-150.93 c 0,-2.136 1.734,-3.871 3.871,-3.871 2.136,0 3.871,1.735 3.871,3.871 0,2.137 -1.735,3.871 -3.871,3.871 -2.137,0 -3.871,-1.734 -3.871,-3.871"
                   style="fill:none;stroke:#ff0000;stroke-width:0.99975002;stroke-linecap:round;stroke-linejoin:round;stroke-miterlimit:4;stroke-dasharray:none;stroke-opacity:1"
                   id="path28" /></g><g
                 id="g30"
                 transform="scale(1,-1)"
                 style="stroke-width:0.99975002;stroke-miterlimit:4;stroke-dasharray:none;fill:none;stroke:#ff0000;stroke-opacity:1"><path
                   d="m 233.039,-498.93 c 0,-3.925 3.184,-7.109 7.109,-7.109 3.93,0 7.114,3.184 7.114,7.109 0,3.926 -3.184,7.11 -7.114,7.11 -3.925,0 -7.109,-3.184 -7.109,-7.11"
                   style="fill:none;stroke:#ff0000;stroke-width:0.99975002;stroke-linecap:round;stroke-linejoin:round;stroke-miterlimit:4;stroke-dasharray:none;stroke-opacity:1"
                   id="path32" /></g><g
                 id="g34"
                 transform="scale(1,-1)"
                 style="stroke-width:0.99975002;stroke-miterlimit:4;stroke-dasharray:none;fill:none;stroke:#ff0000;stroke-opacity:1"><path
                   d="m 241.98,-198.031 c 0,-3.926 3.184,-7.11 7.11,-7.11 3.926,0 7.109,3.184 7.109,7.11 0,3.929 -3.183,7.109 -7.109,7.109 -3.926,0 -7.11,-3.18 -7.11,-7.109"
                   style="fill:none;stroke:#ff0000;stroke-width:0.99975002;stroke-linecap:round;stroke-linejoin:round;stroke-miterlimit:4;stroke-dasharray:none;stroke-opacity:1"
                   id="path36" /></g><g
                 id="g38"
                 transform="scale(1,-1)"
                 style="stroke-width:0.99975002;stroke-miterlimit:4;stroke-dasharray:none;fill:none;stroke:#ff0000;stroke-opacity:1"><path
                   d="m 607.738,-603.09 c 0,-2.336 1.895,-4.23 4.231,-4.23 2.336,0 4.23,1.894 4.23,4.23 0,2.336 -1.894,4.231 -4.23,4.231 -2.336,0 -4.231,-1.895 -4.231,-4.231"
                   style="fill:none;stroke:#ff0000;stroke-width:0.99975002;stroke-linecap:round;stroke-linejoin:round;stroke-miterlimit:4;stroke-dasharray:none;stroke-opacity:1"
                   id="path40" /></g><g
                 id="g42"
                 transform="scale(1,-1)"
                 style="stroke-width:0.99975002;stroke-miterlimit:4;stroke-dasharray:none;fill:none;stroke:#ff0000;stroke-opacity:1"><path
                   d="m 125.82,-603.09 c 0,-2.336 1.895,-4.23 4.231,-4.23 2.336,0 4.23,1.894 4.23,4.23 0,2.336 -1.894,4.231 -4.23,4.231 -2.336,0 -4.231,-1.895 -4.231,-4.231"
                   style="fill:none;stroke:#ff0000;stroke-width:0.99975002;stroke-linecap:round;stroke-linejoin:round;stroke-miterlimit:4;stroke-dasharray:none;stroke-opacity:1"
                   id="path44" /></g><g
                 id="g46"
                 transform="scale(1,-1)"
                 style="stroke-width:0.99975002;stroke-miterlimit:4;stroke-dasharray:none;fill:none;stroke:#ff0000;stroke-opacity:1"><path
                   d="m 553.5,-326.762 h 36.602 V -382.86 H 553.5 Z"
                   style="fill:none;stroke:#ff0000;stroke-width:0.99975002;stroke-linecap:round;stroke-linejoin:round;stroke-miterlimit:4;stroke-dasharray:none;stroke-opacity:1"
                   id="path48" /></g><g
                 id="g50"
                 transform="scale(1,-1)"
                 style="stroke-width:0.99975002;stroke-miterlimit:4;stroke-dasharray:none;fill:none;stroke:#ff0000;stroke-opacity:1"><path
                   d="m 492.18,-193.648 c 0,-3.93 3.183,-7.114 7.109,-7.114 3.926,0 7.109,3.184 7.109,7.114 0,3.925 -3.183,7.109 -7.109,7.109 -3.926,0 -7.109,-3.184 -7.109,-7.109"
                   style="fill:none;stroke:#ff0000;stroke-width:0.99975002;stroke-linecap:round;stroke-linejoin:round;stroke-miterlimit:4;stroke-dasharray:none;stroke-opacity:1"
                   id="path52" /></g><g
                 id="g54"
                 transform="scale(1,-1)"
                 style="stroke-width:0.99975002;stroke-miterlimit:4;stroke-dasharray:none;fill:none;stroke:#ff0000;stroke-opacity:1"><path
                   d="m 405.961,-551.609 c 0,-3.926 3.184,-7.11 7.109,-7.11 3.926,0 7.11,3.184 7.11,7.11 0,3.925 -3.184,7.109 -7.11,7.109 -3.925,0 -7.109,-3.184 -7.109,-7.109"
                   style="fill:none;stroke:#ff0000;stroke-width:0.99975002;stroke-linecap:round;stroke-linejoin:round;stroke-miterlimit:4;stroke-dasharray:none;stroke-opacity:1"
                   id="path56" /></g><g
                 id="g58"
                 transform="scale(1,-1)"
                 style="stroke-width:0.99975002;stroke-miterlimit:4;stroke-dasharray:none;fill:none;stroke:#ff0000;stroke-opacity:1"><path
                   d="m 256.559,-289.828 c 0,-2.141 1.734,-3.871 3.871,-3.871 2.136,0 3.871,1.73 3.871,3.871 0,2.137 -1.735,3.867 -3.871,3.867 -2.137,0 -3.871,-1.73 -3.871,-3.867"
                   style="fill:none;stroke:#ff0000;stroke-width:0.99975002;stroke-linecap:round;stroke-linejoin:round;stroke-miterlimit:4;stroke-dasharray:none;stroke-opacity:1"
                   id="path60" /></g><g
                 id="g62"
                 transform="scale(1,-1)"
                 style="stroke-width:0.99975002;stroke-miterlimit:4;stroke-dasharray:none;fill:none;stroke:#ff0000;stroke-opacity:1"><path
                   d="m 328.441,-552.328 c 0,-3.93 3.184,-7.113 7.11,-7.113 3.926,0 7.109,3.183 7.109,7.113 0,3.926 -3.183,7.109 -7.109,7.109 -3.926,0 -7.11,-3.183 -7.11,-7.109"
                   style="fill:none;stroke:#ff0000;stroke-width:0.99975002;stroke-linecap:round;stroke-linejoin:round;stroke-miterlimit:4;stroke-dasharray:none;stroke-opacity:1"
                   id="path64" /></g><g
                 id="g66"
                 transform="scale(1,-1)"
                 style="stroke-width:0.99975002;stroke-miterlimit:4;stroke-dasharray:none;fill:none;stroke:#ff0000;stroke-opacity:1"><path
                   d="m 315.301,-156.27 c 0,-3.925 3.183,-7.109 7.109,-7.109 3.926,0 7.11,3.184 7.11,7.109 0,3.926 -3.184,7.11 -7.11,7.11 -3.926,0 -7.109,-3.184 -7.109,-7.11"
                   style="fill:none;stroke:#ff0000;stroke-width:0.99975002;stroke-linecap:round;stroke-linejoin:round;stroke-miterlimit:4;stroke-dasharray:none;stroke-opacity:1"
                   id="path68" /></g><g
                 id="g70"
                 transform="scale(1,-1)"
                 style="stroke-width:0.99975002;stroke-miterlimit:4;stroke-dasharray:none;fill:none;stroke:#ff0000;stroke-opacity:1"><path
                   d="m 607.738,-121.172 c 0,-2.336 1.895,-4.226 4.231,-4.226 2.336,0 4.23,1.89 4.23,4.226 0,2.34 -1.894,4.231 -4.23,4.231 -2.336,0 -4.231,-1.891 -4.231,-4.231"
                   style="fill:none;stroke:#ff0000;stroke-width:0.99975002;stroke-linecap:round;stroke-linejoin:round;stroke-miterlimit:4;stroke-dasharray:none;stroke-opacity:1"
                   id="path72" /></g><g
                 id="g74"
                 transform="scale(1,-1)"
                 style="stroke-width:0.99975002;stroke-miterlimit:4;stroke-dasharray:none;fill:none;stroke:#ff0000;stroke-opacity:1"><path
                   d="m 184.98,-326.762 h 36.598 V -382.86 H 184.98 Z"
                   style="fill:none;stroke:#ff0000;stroke-width:0.99975002;stroke-linecap:round;stroke-linejoin:round;stroke-miterlimit:4;stroke-dasharray:none;stroke-opacity:1"
                   id="path76" /></g><g
                 id="g78"
                 transform="scale(1,-1)"
                 style="stroke-width:0.99975002;stroke-miterlimit:4;stroke-dasharray:none;fill:none;stroke:#ff0000;stroke-opacity:1"><path
                   d="m 125.82,-121.172 c 0,-2.336 1.895,-4.226 4.231,-4.226 2.336,0 4.23,1.89 4.23,4.226 0,2.34 -1.894,4.231 -4.23,4.231 -2.336,0 -4.231,-1.891 -4.231,-4.231"
                   style="fill:none;stroke:#ff0000;stroke-width:0.99975002;stroke-linecap:round;stroke-linejoin:round;stroke-miterlimit:4;stroke-dasharray:none;stroke-opacity:1"
                   id="path80" /></g><g
                 id="g82"
                 transform="scale(1,-1)"
                 style="stroke-width:0.99975002;stroke-miterlimit:4;stroke-dasharray:none;fill:none;stroke:#ff0000;stroke-opacity:1"><path
                   d="m 392.461,-148.828 c 0,-3.93 3.184,-7.113 7.109,-7.113 3.926,0 7.11,3.183 7.11,7.113 0,3.926 -3.184,7.109 -7.11,7.109 -3.925,0 -7.109,-3.183 -7.109,-7.109"
                   style="fill:none;stroke:#ff0000;stroke-width:0.99975002;stroke-linecap:round;stroke-linejoin:round;stroke-miterlimit:4;stroke-dasharray:none;stroke-opacity:1"
                   id="path84" /></g><g
                 id="g86"
                 transform="scale(1,-1)"
                 style="stroke-width:0.99975002;stroke-miterlimit:4;stroke-dasharray:none;fill:none;stroke:#ff0000;stroke-opacity:1"><path
                   d="m 482.641,-516.391 c 0,-3.925 3.183,-7.109 7.109,-7.109 3.926,0 7.109,3.184 7.109,7.109 0,3.926 -3.183,7.11 -7.109,7.11 -3.926,0 -7.109,-3.184 -7.109,-7.11"
                   style="fill:none;stroke:#ff0000;stroke-width:0.99975002;stroke-linecap:round;stroke-linejoin:round;stroke-miterlimit:4;stroke-dasharray:none;stroke-opacity:1"
                   id="path88" /></g><g
                 id="g90"
                 transform="scale(1,-1)"
                 style="stroke-width:0.99975002;stroke-miterlimit:4;stroke-dasharray:none;fill:none;stroke:#ff0000;stroke-opacity:1"><path
                   d="m 420.961,-289.828 c 0,-2.141 1.73,-3.871 3.867,-3.871 2.141,0 3.871,1.73 3.871,3.871 0,2.137 -1.73,3.867 -3.871,3.867 -2.137,0 -3.867,-1.73 -3.867,-3.867"
                   style="fill:none;stroke:#ff0000;stroke-width:0.99975002;stroke-linecap:round;stroke-linejoin:round;stroke-miterlimit:4;stroke-dasharray:none;stroke-opacity:1"
                   id="path92" /></g><g
                 id="g94"
                 transform="scale(1,-1)"
                 style="stroke-width:0.99975002;stroke-miterlimit:4;stroke-dasharray:none;fill:none;stroke:#ff0000;stroke-opacity:1"><path
                   d="m 496.738,-396.148 c 0,-2.336 1.895,-4.231 4.231,-4.231 2.336,0 4.23,1.895 4.23,4.231 0,2.335 -1.894,4.226 -4.23,4.226 -2.336,0 -4.231,-1.891 -4.231,-4.226"
                   style="fill:none;stroke:#ff0000;stroke-width:0.99975002;stroke-linecap:round;stroke-linejoin:round;stroke-miterlimit:4;stroke-dasharray:none;stroke-opacity:1"
                   id="path96" /></g><g
                 id="g98"
                 transform="scale(1,-1)"
                 style="stroke-width:0.99975002;stroke-miterlimit:4;stroke-dasharray:none;fill:none;stroke:#ff0000;stroke-opacity:1"><path
                   d="m 496.738,-313.949 c 0,-2.336 1.895,-4.231 4.231,-4.231 2.336,0 4.23,1.895 4.23,4.231 0,2.336 -1.894,4.23 -4.23,4.23 -2.336,0 -4.231,-1.894 -4.231,-4.23"
                   style="fill:none;stroke:#ff0000;stroke-width:0.99975002;stroke-linecap:round;stroke-linejoin:round;stroke-miterlimit:4;stroke-dasharray:none;stroke-opacity:1"
                   id="path100" /></g><g
                 id="g102"
                 transform="scale(1,-1)"
                 style="stroke-width:0.99975002;stroke-miterlimit:4;stroke-dasharray:none;fill:none;stroke:#ff0000;stroke-opacity:1"><path
                   d="m 23.461,-681.031 c 0,-3.129 2.539,-5.668 5.668,-5.668 3.133,0 5.672,2.539 5.672,5.668 0,3.133 -2.539,5.672 -5.672,5.672 -3.129,0 -5.668,-2.539 -5.668,-5.672"
                   style="fill:none;stroke:#ff0000;stroke-width:0.99975002;stroke-linecap:round;stroke-linejoin:round;stroke-miterlimit:4;stroke-dasharray:none;stroke-opacity:1"
                   id="path104" /></g><g
                 id="g106"
                 transform="scale(1,-1)"
                 style="stroke-width:0.99975002;stroke-miterlimit:4;stroke-dasharray:none;fill:none;stroke:#ff0000;stroke-opacity:1"><path
                   d="m 675.422,-681.031 c 0,-3.129 2.535,-5.668 5.668,-5.668 3.133,0 5.672,2.539 5.672,5.668 0,3.133 -2.539,5.672 -5.672,5.672 -3.133,0 -5.668,-2.539 -5.668,-5.672"
                   style="fill:none;stroke:#ff0000;stroke-width:0.99975002;stroke-linecap:round;stroke-linejoin:round;stroke-miterlimit:4;stroke-dasharray:none;stroke-opacity:1"
                   id="path108" /></g><g
                 id="g110"
                 transform="scale(1,-1)"
                 style="stroke-width:0.99975002;stroke-miterlimit:4;stroke-dasharray:none;fill:none;stroke:#ff0000;stroke-opacity:1"><path
                   d="M 317.102,-316.801 H 492.48"
                   style="fill:none;stroke:#ff0000;stroke-width:0.99975002;stroke-linecap:round;stroke-linejoin:round;stroke-miterlimit:4;stroke-dasharray:none;stroke-opacity:1"
                   id="path112" /></g><g
                 id="g114"
                 transform="scale(1,-1)"
                 style="stroke-width:0.99975002;stroke-miterlimit:4;stroke-dasharray:none;fill:none;stroke:#ff0000;stroke-opacity:1"><path
                   d="m 317.129,-316.801 c -3.129,0 -5.668,-2.539 -5.668,-5.668"
                   style="fill:none;stroke:#ff0000;stroke-width:0.99975002;stroke-linecap:round;stroke-linejoin:round;stroke-miterlimit:4;stroke-dasharray:none;stroke-opacity:1"
                   id="path116" /></g><g
                 id="g118"
                 transform="scale(1,-1)"
                 style="stroke-width:0.99975002;stroke-miterlimit:4;stroke-dasharray:none;fill:none;stroke:#ff0000;stroke-opacity:1"><path
                   d="m 311.398,-387.66 v 65.16"
                   style="fill:none;stroke:#ff0000;stroke-width:0.99975002;stroke-linecap:round;stroke-linejoin:round;stroke-miterlimit:4;stroke-dasharray:none;stroke-opacity:1"
                   id="path120" /></g><g
                 id="g122"
                 transform="matrix(0,-1,-1,0,0,0)"
                 style="stroke-width:0.99975002;stroke-miterlimit:4;stroke-dasharray:none;fill:none;stroke:#ff0000;stroke-opacity:1"><path
                   d="m -387.629,-311.461 c -3.133,0 -5.672,-2.539 -5.672,-5.668"
                   style="fill:none;stroke:#ff0000;stroke-width:0.99975002;stroke-linecap:round;stroke-linejoin:round;stroke-miterlimit:4;stroke-dasharray:none;stroke-opacity:1"
                   id="path124" /></g><g
                 id="g126"
                 transform="scale(1,-1)"
                 style="stroke-width:0.99975002;stroke-miterlimit:4;stroke-dasharray:none;fill:none;stroke:#ff0000;stroke-opacity:1"><path
                   d="M 492.48,-393.359 H 317.102"
                   style="fill:none;stroke:#ff0000;stroke-width:0.99975002;stroke-linecap:round;stroke-linejoin:round;stroke-miterlimit:4;stroke-dasharray:none;stroke-opacity:1"
                   id="path128" /></g><g
                 id="g130"
                 transform="scale(-1,1)"
                 style="stroke-width:0.99975002;stroke-miterlimit:4;stroke-dasharray:none;fill:none;stroke:#ff0000;stroke-opacity:1"><path
                   d="m -492.512,393.301 c -3.129,0 -5.668,-2.539 -5.668,-5.672"
                   style="fill:none;stroke:#ff0000;stroke-width:0.99975002;stroke-linecap:round;stroke-linejoin:round;stroke-miterlimit:4;stroke-dasharray:none;stroke-opacity:1"
                   id="path132" /></g><g
                 id="g134"
                 transform="scale(1,-1)"
                 style="stroke-width:0.99975002;stroke-miterlimit:4;stroke-dasharray:none;fill:none;stroke:#ff0000;stroke-opacity:1"><path
                   d="m 498.121,-322.5 v -65.16"
                   style="fill:none;stroke:#ff0000;stroke-width:0.99975002;stroke-linecap:round;stroke-linejoin:round;stroke-miterlimit:4;stroke-dasharray:none;stroke-opacity:1"
                   id="path136" /></g><g
                 id="g138"
                 transform="matrix(0,1,1,0,0,0)"
                 style="stroke-width:0.99975002;stroke-miterlimit:4;stroke-dasharray:none;fill:none;stroke:#ff0000;stroke-opacity:1"><path
                   d="m 322.469,498.18 c -3.129,0 -5.668,-2.539 -5.668,-5.668"
                   style="fill:none;stroke:#ff0000;stroke-width:0.99975002;stroke-linecap:round;stroke-linejoin:round;stroke-miterlimit:4;stroke-dasharray:none;stroke-opacity:1"
                   id="path140" /></g><g
                 id="g142"
                 transform="scale(1,-1)"
                 style="stroke-width:0.99975002;stroke-miterlimit:4;stroke-dasharray:none;fill:none;stroke:#ff0000;stroke-opacity:1"><path
                   d="m 675.422,-29.07 c 0,-3.133 2.535,-5.668 5.668,-5.668 3.133,0 5.672,2.535 5.672,5.668 0,3.132 -2.539,5.672 -5.672,5.672 -3.133,0 -5.668,-2.54 -5.668,-5.672"
                   style="fill:none;stroke:#ff0000;stroke-width:0.99975002;stroke-linecap:round;stroke-linejoin:round;stroke-miterlimit:4;stroke-dasharray:none;stroke-opacity:1"
                   id="path144" /></g><g
                 id="g146"
                 transform="scale(1,-1)"
                 style="stroke-width:0.99975002;stroke-miterlimit:4;stroke-dasharray:none;fill:none;stroke:#ff0000;stroke-opacity:1"><path
                   d="m 304.379,-396.148 c 0,-2.336 1.894,-4.231 4.23,-4.231 2.336,0 4.231,1.895 4.231,4.231 0,2.335 -1.895,4.226 -4.231,4.226 -2.336,0 -4.23,-1.891 -4.23,-4.226"
                   style="fill:none;stroke:#ff0000;stroke-width:0.99975002;stroke-linecap:round;stroke-linejoin:round;stroke-miterlimit:4;stroke-dasharray:none;stroke-opacity:1"
                   id="path148" /></g><g
                 id="g150"
                 transform="scale(1,-1)"
                 style="stroke-width:0.99975002;stroke-miterlimit:4;stroke-dasharray:none;fill:none;stroke:#ff0000;stroke-opacity:1"><path
                   d="m 304.379,-313.949 c 0,-2.336 1.894,-4.231 4.23,-4.231 2.336,0 4.231,1.895 4.231,4.231 0,2.336 -1.895,4.23 -4.231,4.23 -2.336,0 -4.23,-1.894 -4.23,-4.23"
                   style="fill:none;stroke:#ff0000;stroke-width:0.99975002;stroke-linecap:round;stroke-linejoin:round;stroke-miterlimit:4;stroke-dasharray:none;stroke-opacity:1"
                   id="path152" /></g><g
                 id="g154"
                 transform="scale(1,-1)"
                 style="stroke-width:0.99975002;stroke-miterlimit:4;stroke-dasharray:none;fill:none;stroke:#ff0000;stroke-opacity:1"><path
                   d="m 23.461,-29.07 c 0,-3.133 2.539,-5.668 5.668,-5.668 3.133,0 5.672,2.535 5.672,5.668 0,3.132 -2.539,5.672 -5.672,5.672 -3.129,0 -5.668,-2.54 -5.668,-5.672"
                   style="fill:none;stroke:#ff0000;stroke-width:0.99975002;stroke-linecap:round;stroke-linejoin:round;stroke-miterlimit:4;stroke-dasharray:none;stroke-opacity:1"
                   id="path156" /></g><g
                 id="g158"
                 transform="scale(1,-1)"
                 style="stroke-width:0.99975002;stroke-miterlimit:4;stroke-dasharray:none;fill:none;stroke:#ff0000;stroke-opacity:1"><path
                   d="M 709.441,-681.059 V -29.102"
                   style="fill:none;stroke:#ff0000;stroke-width:0.99975002;stroke-linecap:round;stroke-linejoin:round;stroke-miterlimit:4;stroke-dasharray:none;stroke-opacity:1"
                   id="path160" /></g><g
                 id="g162"
                 transform="scale(1,-1)"
                 style="stroke-width:0.99975002;stroke-miterlimit:4;stroke-dasharray:none;fill:none;stroke:#ff0000;stroke-opacity:1"><path
                   d="m 681.09,-709.379 c 15.656,0 28.351,12.691 28.351,28.348"
                   style="fill:none;stroke:#ff0000;stroke-width:0.99975002;stroke-linecap:round;stroke-linejoin:round;stroke-miterlimit:4;stroke-dasharray:none;stroke-opacity:1"
                   id="path164" /></g><g
                 id="g166"
                 transform="scale(1,-1)"
                 style="stroke-width:0.99975002;stroke-miterlimit:4;stroke-dasharray:none;fill:none;stroke:#ff0000;stroke-opacity:1"><path
                   d="M 29.102,-709.441 H 681.059"
                   style="fill:none;stroke:#ff0000;stroke-width:0.99975002;stroke-linecap:round;stroke-linejoin:round;stroke-miterlimit:4;stroke-dasharray:none;stroke-opacity:1"
                   id="path168" /></g><g
                 id="g170"
                 transform="scale(1,-1)"
                 style="stroke-width:0.99975002;stroke-miterlimit:4;stroke-dasharray:none;fill:none;stroke:#ff0000;stroke-opacity:1"><path
                   d="m 0.781,-681.031 c 0,-15.657 12.692,-28.348 28.348,-28.348"
                   style="fill:none;stroke:#ff0000;stroke-width:0.99975002;stroke-linecap:round;stroke-linejoin:round;stroke-miterlimit:4;stroke-dasharray:none;stroke-opacity:1"
                   id="path172" /></g><g
                 id="g174"
                 transform="scale(1,-1)"
                 style="stroke-width:0.99975002;stroke-miterlimit:4;stroke-dasharray:none;fill:none;stroke:#ff0000;stroke-opacity:1"><path
                   d="M 0.719,-29.102 V -681.059"
                   style="fill:none;stroke:#ff0000;stroke-width:0.99975002;stroke-linecap:round;stroke-linejoin:round;stroke-miterlimit:4;stroke-dasharray:none;stroke-opacity:1"
                   id="path176" /></g><g
                 id="g178"
                 transform="scale(1,-1)"
                 style="stroke-width:0.99975002;stroke-miterlimit:4;stroke-dasharray:none;fill:none;stroke:#ff0000;stroke-opacity:1"><path
                   d="M 29.129,-0.719 C 13.473,-0.719 0.781,-13.414 0.781,-29.07"
                   style="fill:none;stroke:#ff0000;stroke-width:0.99975002;stroke-linecap:round;stroke-linejoin:round;stroke-miterlimit:4;stroke-dasharray:none;stroke-opacity:1"
                   id="path180" /></g><g
                 id="g182"
                 transform="scale(1,-1)"
                 style="stroke-width:0.99975002;stroke-miterlimit:4;stroke-dasharray:none;fill:none;stroke:#ff0000;stroke-opacity:1"><path
                   d="M 681.059,-0.719 H 29.102"
                   style="fill:none;stroke:#ff0000;stroke-width:0.99975002;stroke-linecap:round;stroke-linejoin:round;stroke-miterlimit:4;stroke-dasharray:none;stroke-opacity:1"
                   id="path184" /></g><g
                 id="g186"
                 transform="scale(1,-1)"
                 style="stroke-width:0.99975002;stroke-miterlimit:4;stroke-dasharray:none;fill:none;stroke:#ff0000;stroke-opacity:1"><path
                   d="m 709.441,-29.07 c 0,15.656 -12.695,28.351 -28.351,28.351"
                   style="fill:none;stroke:#ff0000;stroke-width:0.99975002;stroke-linecap:round;stroke-linejoin:round;stroke-miterlimit:4;stroke-dasharray:none;stroke-opacity:1"
                   id="path188" /></g></g></g></g></g></g></g></svg>
