<?xml version="1.0" encoding="UTF-8" standalone="no"?>
<svg
   xmlns:dc="http://purl.org/dc/elements/1.1/"
   xmlns:cc="http://creativecommons.org/ns#"
   xmlns:rdf="http://www.w3.org/1999/02/22-rdf-syntax-ns#"
   xmlns:svg="http://www.w3.org/2000/svg"
   xmlns="http://www.w3.org/2000/svg"
   xmlns:sodipodi="http://sodipodi.sourceforge.net/DTD/sodipodi-0.dtd"
   xmlns:inkscape="http://www.inkscape.org/namespaces/inkscape"
   version="1.1"
   id="svg2"
   xml:space="preserve"
   width="1588"
   height="1122.6667"
   viewBox="0 0 1588 1122.6667"
   sodipodi:docname="protege_cam.svg"
   inkscape:version="1.0.2-2 (e86c870879, 2021-01-15)"><metadata
     id="metadata8"><rdf:RDF><cc:Work
         rdf:about=""><dc:format>image/svg+xml</dc:format><dc:type
           rdf:resource="http://purl.org/dc/dcmitype/StillImage" /><dc:title></dc:title></cc:Work></rdf:RDF></metadata><defs
     id="defs6"><clipPath
       clipPathUnits="userSpaceOnUse"
       id="clipPath18"><path
         d="m 3445,8634 h 3795 v 1958 H 3445 V 8634"
         id="path16" /></clipPath></defs><sodipodi:namedview
     pagecolor="#ffffff"
     bordercolor="#666666"
     borderopacity="1"
     objecttolerance="10"
     gridtolerance="10"
     guidetolerance="10"
     inkscape:pageopacity="0"
     inkscape:pageshadow="2"
     inkscape:window-width="1540"
     inkscape:window-height="797"
     id="namedview4"
     showgrid="false"
     inkscape:zoom="1.4999999"
     inkscape:cx="495.90493"
     inkscape:cy="280.06856"
     inkscape:window-x="2214"
     inkscape:window-y="147"
     inkscape:window-maximized="0"
     inkscape:current-layer="g10" /><g
     id="g10"
     inkscape:groupmode="layer"
     inkscape:label="protege_cam"
     transform="matrix(0.08,0,0,-0.08,0,1122.6667)"><path
       d="m 3669,10298.5 c 0,-38.937 31.564,-70.5 70.5,-70.5 38.936,0 70.5,31.563 70.5,70.5 0,38.937 -31.564,70.5 -70.5,70.5 -38.936,0 -70.5,-31.563 -70.5,-70.5"
       style="fill:none;stroke:#db0000;stroke-width:12.75;stroke-linecap:round;stroke-linejoin:round;stroke-miterlimit:10;stroke-dasharray:none;stroke-opacity:1"
       id="path20" /><path
       d="m 6876,8928.5 c 0,-38.9365 31.564,-70.5 70.5,-70.5 38.936,0 70.5,31.5635 70.5,70.5 0,38.9365 -31.564,70.5 -70.5,70.5 -38.936,0 -70.5,-31.5635 -70.5,-70.5"
       style="fill:none;stroke:#db0000;stroke-width:12.75;stroke-linecap:round;stroke-linejoin:round;stroke-miterlimit:10;stroke-dasharray:none;stroke-opacity:1"
       id="path22" /><path
       d="m 3669,8928.5 c 0,-38.9365 31.564,-70.5 70.5,-70.5 38.936,0 70.5,31.5635 70.5,70.5 0,38.9365 -31.564,70.5 -70.5,70.5 -38.936,0 -70.5,-31.5635 -70.5,-70.5"
       style="fill:none;stroke:#db0000;stroke-width:12.75;stroke-linecap:round;stroke-linejoin:round;stroke-miterlimit:10;stroke-dasharray:none;stroke-opacity:1"
       id="path24" /><path
       d="m 6876,10298.5 c 0,-38.937 31.564,-70.5 70.5,-70.5 38.936,0 70.5,31.563 70.5,70.5 0,38.937 -31.564,70.5 -70.5,70.5 -38.936,0 -70.5,-31.563 -70.5,-70.5"
       style="fill:none;stroke:#db0000;stroke-width:12.75;stroke-linecap:round;stroke-linejoin:round;stroke-miterlimit:10;stroke-dasharray:none;stroke-opacity:1"
       id="path26" /><path
       d="m 3598,8881.5 c 0,-52.1904 42.3091,-94.5 94.5,-94.5"
       style="fill:none;stroke:#db0000;stroke-width:12.75;stroke-linecap:round;stroke-linejoin:round;stroke-miterlimit:10;stroke-dasharray:none;stroke-opacity:1"
       id="path36" /><path
       d="M 3692,8786 H 6993"
       style="fill:none;stroke:#db0000;stroke-width:12.75;stroke-linecap:round;stroke-linejoin:round;stroke-miterlimit:10;stroke-dasharray:none;stroke-opacity:1"
       id="path38" /><path
       d="m 6993.5,8787 c 52.1909,0 94.5,42.3096 94.5,94.5"
       style="fill:none;stroke:#db0000;stroke-width:12.75;stroke-linecap:round;stroke-linejoin:round;stroke-miterlimit:10;stroke-dasharray:none;stroke-opacity:1"
       id="path40" /><path
       d="m 7088,8881 v 1464"
       style="fill:none;stroke:#db0000;stroke-width:12.75;stroke-linecap:round;stroke-linejoin:round;stroke-miterlimit:10;stroke-dasharray:none;stroke-opacity:1"
       id="path42" /><path
       d="m 7088,10345.5 c 0,52.19 -42.3091,94.5 -94.5,94.5"
       style="fill:none;stroke:#db0000;stroke-width:12.75;stroke-linecap:round;stroke-linejoin:round;stroke-miterlimit:10;stroke-dasharray:none;stroke-opacity:1"
       id="path44" /><path
       d="M 6993,10440 H 3692"
       style="fill:none;stroke:#db0000;stroke-width:12.75;stroke-linecap:round;stroke-linejoin:round;stroke-miterlimit:10;stroke-dasharray:none;stroke-opacity:1"
       id="path46" /><path
       d="m 3692.5,10440 c -52.1909,0 -94.5,-42.31 -94.5,-94.5"
       style="fill:none;stroke:#db0000;stroke-width:12.75;stroke-linecap:round;stroke-linejoin:round;stroke-miterlimit:10;stroke-dasharray:none;stroke-opacity:1"
       id="path48" /><path
       d="M 3597,10345 V 8881"
       style="fill:none;stroke:#db0000;stroke-width:12.75;stroke-linecap:round;stroke-linejoin:round;stroke-miterlimit:10;stroke-dasharray:none;stroke-opacity:1"
       id="path50" /></g></svg>
